<?xml version="1.0" encoding="utf-8" ?>
<svg xmlns="http://www.w3.org/2000/svg" xmlns:xlink="http://www.w3.org/1999/xlink" width="300" height="360" shape-rendering="crispEdges">
	<path fill="#006AB1" transform="matrix(0 1 -1 0 300 60)" d="M150 150L300 150Q300 146.318 299.819 142.64Q299.639 138.962 299.278 135.297Q298.917 131.633 298.376 127.99Q297.836 124.348 297.118 120.736Q296.399 117.125 295.505 113.553Q294.61 109.981 293.541 106.457Q292.472 102.934 291.232 99.4665Q289.991 95.9995 288.582 92.5975Q287.173 89.1955 285.598 85.8667Q284.024 82.538 282.288 79.2905Q280.552 76.043 278.659 72.8846Q276.766 69.7262 274.72 66.6645Q272.675 63.6027 270.481 60.6451Q268.288 57.6875 265.952 54.841Q263.616 51.9946 261.143 49.2662Q258.67 46.5378 256.066 43.934Q253.462 41.3302 250.734 38.8573Q248.005 36.3845 245.159 34.0484Q242.312 31.7124 239.355 29.5189Q236.397 27.3253 233.335 25.2796Q230.274 23.2338 227.115 21.3407Q223.957 19.4476 220.709 17.7118Q217.462 15.976 214.133 14.4016Q210.804 12.8272 207.402 11.4181Q204 10.0089 200.533 8.76839Q197.066 7.52786 193.543 6.45895Q190.019 5.39004 186.447 4.49531Q182.875 3.60059 179.264 2.88221Q175.652 2.16383 172.01 1.62352Q168.367 1.08322 164.703 0.722291Q161.038 0.361363 157.36 0.180682Q153.682 0 150 0L150 150Z"/>
	<path fill="#DD4D3E" transform="matrix(-1 0 0 -1 300 360)" d="M150 150L300 150Q300 146.318 299.819 142.64Q299.639 138.962 299.278 135.297Q298.917 131.633 298.376 127.99Q297.836 124.348 297.118 120.736Q296.399 117.125 295.505 113.553Q294.61 109.981 293.541 106.457Q292.472 102.934 291.232 99.4665Q289.991 95.9995 288.582 92.5975Q287.173 89.1955 285.598 85.8667Q284.024 82.538 282.288 79.2905Q280.552 76.043 278.659 72.8846Q276.766 69.7262 274.72 66.6645Q272.675 63.6027 270.481 60.6451Q268.288 57.6875 265.952 54.841Q263.616 51.9946 261.143 49.2662Q258.67 46.5378 256.066 43.934Q253.462 41.3302 250.734 38.8573Q248.005 36.3845 245.159 34.0484Q242.312 31.7124 239.355 29.5189Q236.397 27.3253 233.335 25.2796Q230.274 23.2338 227.115 21.3407Q223.957 19.4476 220.709 17.7118Q217.462 15.976 214.133 14.4016Q210.804 12.8272 207.402 11.4181Q204 10.0089 200.533 8.76839Q197.066 7.52786 193.543 6.45895Q190.019 5.39004 186.447 4.49531Q182.875 3.60059 179.264 2.88221Q175.652 2.16383 172.01 1.62352Q168.367 1.08322 164.703 0.722291Q161.038 0.361363 157.36 0.180682Q153.682 0 150 0L150 150Z"/>
	<path fill="#006AB1" transform="translate(150 0)" d="M0 0L150 0L150 210L0 210L0 0Z"/>
	<path fill="#DD4D3E" d="M0 0L150 0L150 210L0 210L0 0Z"/>
</svg>
